<?xml version="1.0" standalone="no"?><!DOCTYPE svg PUBLIC "-//W3C//DTD SVG 1.1//EN" "http://www.w3.org/Graphics/SVG/1.1/DTD/svg11.dtd"><svg t="1619144991507" class="icon" viewBox="0 0 1024 1024" version="1.1" xmlns="http://www.w3.org/2000/svg" p-id="3898" xmlns:xlink="http://www.w3.org/1999/xlink" width="200" height="200"><defs><style type="text/css"></style></defs><path d="M262.94208331 510.28569577m95.89575053 0l0 0q95.89575053 0 95.89575053 95.89575053l0 174.35528015q0 95.89575053-95.89575053 95.8957498l0 0q-95.89575053 0-95.89575053-95.8957498l0-174.35528015q0-95.89575053 95.89575053-95.89575052Z" fill="#ACE6FF" p-id="3899"></path><path d="M318.04544946 301.38257121c211.45932817-64.94222764 454.35610579-147.87288816 454.3561065-147.87288744v662.55461632s-256.16271439-75.04334101-467.63688744-134.75143638-198.17755786-314.98905353 13.28078094-379.9302925z" fill="#27A9E0" p-id="3900"></path><path d="M681.40643308 484.78600184a331.2763188 95.89575053 90 1 0 191.79150105 0 331.2763188 95.89575053 90 1 0-191.79150105 0Z" fill="#ACE6FF" p-id="3901"></path><path d="M703.17622627 484.78600184a315.44230237 78.08248182 90 1 0 156.16496434 0 315.44230237 78.08248182 90 1 0-156.16496434 0Z" fill="#FFFFFF" p-id="3902"></path></svg>