<?xml version="1.0" standalone="no"?><!DOCTYPE svg PUBLIC "-//W3C//DTD SVG 1.1//EN" "http://www.w3.org/Graphics/SVG/1.1/DTD/svg11.dtd"><svg t="1620800657837" class="icon" viewBox="0 0 1026 1024" version="1.1" xmlns="http://www.w3.org/2000/svg" p-id="4113" xmlns:xlink="http://www.w3.org/1999/xlink" width="200.390625" height="200"><defs><style type="text/css"></style></defs><path d="M513.03147943 213.52648715c38.78361887 0 70.14058648 31.35696844 70.14058649 70.1405873V476.55368771c0 38.78361887-31.35696844 70.14058648-70.14058649 70.14058731s-70.14058648-31.35696844-70.14058731-70.14058731v-192.88661325c0-38.78361887 31.35696844-70.14058648 70.1405873-70.14058731z" fill="#43C7FF" p-id="4114"></path><path d="M355.2151586 361.02801531h315.63264083c146.47004873 0 265.0901586 118.62010987 265.0901586 265.09015943S817.31784817 891.20833334 670.84779943 891.20833334h-315.63264083C208.74510987 891.20833334 90.125 772.58822347 90.125 626.11817474S208.74510987 361.02801531 355.2151586 361.02801531z" fill="#27A9E0" p-id="4115"></path><path d="M512.61888732 47.45833334h1.03147944C552.02139353 47.45833334 583.17206592 78.60900573 583.17206592 117.18632856c0 38.37102676-31.15067239 69.72799522-69.72799521 69.72799519h-1.03147943c-38.37102676 0-69.72799522-31.15067239-69.72799439-69.7279952C442.89089212 78.60900573 474.04156452 47.45833334 512.61888732 47.45833334z" fill="#ACE6FF" p-id="4116"></path><path d="M322.20782422 724.10870011v-58.79431523H263.41350818c-21.66106394 0-39.19621014-17.53514703-39.19621015-39.19621014s17.53514703-39.19621014 39.19621015-39.19621096h58.79431604V528.12764856c0-21.66106394 17.53514703-39.19621014 39.19621014-39.19621015s39.19621014 17.53514703 39.19621015 39.19621015v58.79431522H459.39455972c21.66106394 0 39.19621014 17.53514703 39.19621015 39.19621096s-17.53514703 39.19621014-39.19621015 39.19621014h-58.79431521V724.10870011c0 21.66106394-17.53514703 39.19621014-39.19621014 39.19621013s-39.19621014-17.53514703-39.19621015-39.19621013z" fill="#FFFFFF" p-id="4117"></path><path d="M624.43123493 703.06652433a60.23838593 58.17542788 90 1 0 116.35085577-1e-8 60.23838593 58.17542788 90 1 0-116.35085577 0Z" fill="#FFFFFF" p-id="4118"></path><path d="M682.19407071 546.69427502a59.82579465 57.76283579 0 1 0 119.6515893 0 59.82579465 57.76283579 0 1 0-119.6515893 0Z" fill="#FFFFFF" p-id="4119"></path></svg>