<?xml version="1.0" standalone="no"?><!DOCTYPE svg PUBLIC "-//W3C//DTD SVG 1.1//EN" "http://www.w3.org/Graphics/SVG/1.1/DTD/svg11.dtd"><svg t="1617247521533" class="icon" viewBox="0 0 1024 1024" version="1.1" xmlns="http://www.w3.org/2000/svg" p-id="4058" xmlns:xlink="http://www.w3.org/1999/xlink" width="200" height="200"><defs><style type="text/css"></style></defs><path d="M777.97372813 657.93434354a309.64919332 309.64919332 0 0 1-51.05605264 41.20129094c-86.59609755 55.56408194-195.20815207 62.90273428-287.5703336 21.91111914-26.31431049-11.63700583-51.26572845-27.15301364-74.12038856-46.65286126-6.08059764-5.24189453-12.0563574-10.69346482-17.82244137-16.45954882-103.05564633-103.05564633-116.78940999-261.67537463-41.20129096-379.51316353 11.63700583-18.13695504 25.3707695-35.2255312 41.20129096-51.05605265 118.8861678-118.8861678 311.68304839-118.8861678 430.56921617 0 5.76608398 5.76608398 11.21765427 11.74184374 16.45954881 17.82244138 19.49984763 22.74982223 35.01585542 47.80607806 46.65286127 74.12038857 49.48348432 111.65235336 28.41106832 247.10290785-63.11241008 338.62638623z" fill="#C7E6F3" p-id="4059"></path><path d="M807.43317537 442.70215439c0 45.70932024-12.47570896 88.48317956-34.28199019 125.07160334-42.66902141 71.70911709-120.98292561 119.72487092-210.4096462 119.72487093-58.08019133 0-111.44267758-20.23371287-153.48267165-54.09635148-13.10473631-10.58862693-25.16109371-22.54014644-35.85455854-35.54004487-6.08059764-7.33865234-11.63700583-15.09665622-16.87890037-23.16917381-24.42722848-38.05615424-38.58034369-83.34612293-38.5803437-131.99090411 0-89.53155847 48.01575383-167.74062476 119.72487092-210.40964618 32.18523238-19.18533395 69.1930077-31.24169137 108.82173032-33.75780072 5.34673242-0.31451366 10.69346482-0.52418946 16.14503515-0.52418948 17.40308981 0 34.38682807 1.78224413 50.63670108 5.24189455 29.35460933 6.18543554 56.82213664 17.61276561 81.24936513 33.33844916 8.07251757 5.13705664 15.83052147 10.79830273 23.1691738 16.87890036 13.10473631 10.69346482 24.95141793 22.74982223 35.54004486 35.85455855 33.96747652 41.93515619 54.20118937 95.29764244 54.20118939 153.37783376z" fill="#28A9E0" p-id="4060"></path><path d="M748.16517073 592.61195075c-42.66902141 71.70911709-120.98292561 119.72487092-210.40964618 119.72487092-58.08019133 0-111.44267758-20.23371287-153.48267165-54.09635148-13.10473631-10.58862693-25.16109371-22.54014644-35.85455855-35.54004487-6.08059764-7.33865234-11.63700583-15.09665622-16.87890036-23.16917381-24.42722848-38.05615424-38.58034369-83.34612293-38.58034371-131.9909041 0-89.53155847 48.01575383-167.74062476 119.72487093-210.40964619 88.48317956-9.54024803 180.21633373 19.60468552 248.04644888 87.43480065 5.76608398 5.76608398 11.21765427 11.74184374 16.45954879 17.82244139 19.49984763 22.74982223 35.01585542 47.80607806 46.65286126 74.12038857 21.9111191 49.27380852 29.98363668 103.37016001 24.32239059 156.10361892z" fill="#249FD4" p-id="4061"></path><path d="M562.63670111 698.82112082c-65.62851943 0-131.25703887-24.95141793-181.15987476-74.95909167-99.91050963-99.91050963-99.91050963-262.51407775 0-362.42458739 99.91050963-99.91050963 262.51407775-99.91050963 362.42458739 0 99.91050963 99.91050963 99.91050963 262.51407775 0 362.42458739-50.00767375 50.00767375-115.6361932 74.95909168-181.26471263 74.95909167z m0-489.27843485c-59.75759757 0-119.41035726 22.74982223-164.91000173 68.24946671-90.89445103 90.89445103-90.89445103 238.9255524 0 329.82000342 90.89445103 90.89445103 238.9255524 90.89445103 329.82000344 0 90.89445103-90.89445103 90.89445103-238.9255524 0-329.82000342-45.39480658-45.49964447-105.15240414-68.24946669-164.91000171-68.24946671z" fill="#28A9E0" p-id="4062"></path><path d="M639.27319903 796.63487264c-91.62831627 91.52347838-226.97403289 112.59589437-338.73122413 63.11241007-26.31431049-11.63700583-51.26572845-27.15301364-74.12038857-46.65286126-6.08059764-5.24189453-12.0563574-10.69346482-17.82244137-16.45954881-118.8861678-118.8861678-118.8861678-311.68304839 0-430.56921618 118.8861678-118.8861678 311.68304839-118.8861678 430.56921619 0 5.76608398 5.76608398 11.21765427 11.74184374 16.4595488 17.82244137 19.49984763 22.74982223 35.01585542 47.80607806 46.65286127 74.12038858 49.58832219 111.65235336 28.51590621 246.99806996-63.00757219 338.62638623z" fill="#C7E6F3" p-id="4063"></path><path d="M668.73264628 581.29784561C668.73264628 716.43388643 559.17705072 826.09431987 423.93617201 826.09431987c-76.32198427 0-144.46661308-34.91101753-189.33723022-89.63639637-34.59650387-42.24966986-55.45924406-96.24118345-55.45924405-155.16007789 0-135.13604081 109.55559554-244.79647426 244.79647427-244.79647427 58.91889444 0 112.91040804 20.75790231 155.16007789 55.45924408 54.72537883 44.97545501 89.63639636 113.12008382 89.63639638 189.33723019z" fill="#28A9E0" p-id="4064"></path><path d="M539.25785152 365.43662911L207.97011763 696.61952514c-8.59670702-16.14503513-15.5160078-33.23361128-20.33855077-51.26572846l300.36055622-300.36055621c18.03211716 4.92738083 35.2255312 11.84668163 51.26572844 20.44338864z" fill="#28A9E0" p-id="4065"></path><path d="M424.01794556 837.52164992c-65.62851943 0-131.25703887-24.95141793-181.15987475-74.95909168-99.91050963-99.91050963-99.91050963-262.51407775 0-362.42458739 99.91050963-99.91050963 262.51407775-99.91050963 362.42458738 0 99.91050963 99.91050963 99.91050963 262.51407775 0 362.42458739-50.11251165 49.90283587-115.6361932 74.95909168-181.26471263 74.95909168z m0-489.27843484c-59.75759757 0-119.41035726 22.74982223-164.91000173 68.2494667-90.89445103 90.89445103-90.89445103 238.9255524 0 329.82000344 90.89445103 90.89445103 238.9255524 90.89445103 329.82000344 0 90.89445103-90.89445103 90.89445103-238.9255524 0-329.82000344-45.49964447-45.60448236-105.25724205-68.24946669-164.91000171-68.2494667z" fill="#28A9E0" p-id="4066"></path><path d="M505.79150012 644.09574201c0 32.39490816-20.44338864 59.33824601-49.3786464 69.82203505V736.35308563c0 13.94343944-11.00797851 24.95141793-24.95141794 24.95141791s-24.95141793-11.00797851-24.95141793-24.95141792v-22.015957c-28.93525778-10.48378905-50.32218743-37.84647846-50.32218745-70.24138661 0-13.94343944 11.42733007-24.95141793 24.95141795-24.95141794 13.94343944 0 24.95141793 11.00797851 24.95141793 24.95141794 0 13.41924997 11.42733007 24.95141793 24.95141794 24.95141793h0.52418945c13.94343944-0.52418946 24.42722848-11.42733007 24.42722847-24.95141793 0-13.94343944-10.48378905-24.42722848-24.42722847-24.95141794h-0.52418946c-40.88677728 0-74.7494159-33.86263862-74.7494159-74.74941591 0-32.9190976 21.38692966-60.28178702 50.32218742-70.24138663v-36.90293743c0-13.94343944 11.00797851-24.95141793 24.95141794-24.95141795s24.95141793 11.00797851 24.95141794 24.95141795v36.90293744c28.93525778 10.48378905 49.37864641 37.84647846 49.37864642 70.24138662 0 13.41924997-11.00797851 24.95141793-24.95141795 24.95141793-13.41924997 0-24.95141793-11.42733007-24.95141794-24.95141793 0-13.94343944-10.48378905-24.42722848-24.42722847-24.95141793h-0.52418945c-13.41924997 0-24.95141793 11.00797851-24.95141794 24.95141793 0 13.41924997 11.42733007 24.95141793 24.95141794 24.95141793h0.52418945c41.30612885 0.41935156 74.22522645 33.33844917 74.22522645 74.74941592z" fill="#FFFFFF" p-id="4067"></path><path d="M755.01423012 568.0882714c-82.61225769 0-149.49883182 66.99141202-149.49883182 149.49883183S672.40197243 867.08593504 755.01423012 867.08593504s149.49883182-66.99141202 149.49883182-149.49883181c0-39.6287226-15.72568358-77.68487684-43.82223821-105.6765936s-66.047871-43.82223822-105.67659361-43.82223823z" fill="#43C7FF" p-id="4068"></path><path d="M759.52225941 808.37671638c4.71770507 0 8.49186912-1.46773047 11.53216795-4.5080293l52.52378313-50.11251164c3.04029882-3.04029882 4.50802929-6.6047871 4.5080293-10.79830272 0-4.19351562-1.46773047-7.75800389-4.5080293-10.79830273s-6.81446287-4.50802929-11.53216795-4.50802928-8.49186912 1.46773047-11.53216794 4.50802928l-25.05625583 24.11271481V647.66023029c0-4.29835352-1.57256837-7.96767968-4.71770508-11.00797851-3.1451367-3.04029882-6.91930076-4.50802929-11.21765428-4.50802929s-8.07251757 1.46773047-11.21765427 4.50802929-4.71770507 6.70962499-4.71770507 11.00797851V756.2722848L718.53064423 732.2644079c-3.04029882-3.04029882-6.81446287-4.50802929-11.53216793-4.50802929s-8.49186912 1.46773047-11.53216796 4.50802929-4.50802929 6.6047871-4.5080293 10.79830271c0 4.19351562 1.46773047 7.75800389 4.5080293 10.79830272l53.04797258 50.11251164c2.93546093 2.93546093 6.6047871 4.40319141 11.00797849 4.40319141z" fill="#FFFFFF" p-id="4069"></path></svg>