<?xml version="1.0" standalone="no"?><!DOCTYPE svg PUBLIC "-//W3C//DTD SVG 1.1//EN" "http://www.w3.org/Graphics/SVG/1.1/DTD/svg11.dtd"><svg t="1617247513761" class="icon" viewBox="0 0 1024 1024" version="1.1" xmlns="http://www.w3.org/2000/svg" p-id="3913" data-spm-anchor-id="a313x.7781069.0.i0" xmlns:xlink="http://www.w3.org/1999/xlink" width="200" height="200"><defs><style type="text/css"></style></defs><path d="M426.4 388.9c-7.3 0-15 0-22.7 0.9h-1.3c-140.4 13.3-255.6 146.5-255.6 295 0 172.5 160.2 192.6 279.6 192.6 118.5 0 256.8-18 276-159.6 20.1-166.2-111.7-328.9-276-328.9z" fill="#28A9E0" p-id="3914"></path><path d="M738.1 581.7C661.3 581.7 599 644 599 720.8s62.3 139.1 139.1 139.1 139.1-62.3 139.1-139.1c0-36.9-14.7-72.3-40.7-98.4s-61.5-40.7-98.4-40.7z" fill="#43C7FF" p-id="3915"></path><path d="M790.2 703.4h-34.8v-34.8c0-9.6-7.8-17.4-17.4-17.4-9.6 0-17.4 7.8-17.4 17.4v34.8h-34.8c-9.6 0-17.4 7.8-17.4 17.4 0 9.6 7.8 17.4 17.4 17.4h34.8V773c0 9.6 7.8 17.4 17.4 17.4 9.6 0 17.4-7.8 17.4-17.4v-34.8h34.8c9.6 0 17.4-7.8 17.4-17.4 0-9.6-7.8-17.4-17.4-17.4z" fill="#FFFFFF" p-id="3916"></path><path d="M574.9 218l-42.8 129.8H320.7L277.9 218c-2.6-6.4-1.3-13.7 2.6-19.3 4.3-5.6 10.7-9 17.5-9h68c8.6-24.8 32.5-42.8 60.3-42.8 27.8 0 51.4 18 60.3 42.8h68c6.8 0 13.3 3.4 17.5 9 4.1 5.6 5.4 12.9 2.8 19.3z" fill="#28A9E0" p-id="3917"></path><path d="M490.2 691.1c0 27.8-17.5 50.9-42.4 59.9v19.3c0 12-9.4 21.4-21.4 21.4-12 0-21.4-9.4-21.4-21.4v-18.8c-24.8-9-43.2-32.5-43.2-60.3 0-12 9.8-21.4 21.4-21.4 12 0 21.4 9.4 21.4 21.4 0 11.6 9.8 21.4 21.4 21.4h0.4c12-0.4 21-9.8 21-21.4 0-12-9-21-21-21.4h-0.4c-35.1 0-64.2-29.1-64.2-64.2 0-28.2 18.4-51.8 43.2-60.3v-31.7c0-12 9.4-21.4 21.4-21.4 12 0 21.4 9.4 21.4 21.4v31.7c24.8 9 42.4 32.5 42.4 60.3 0 11.6-9.4 21.4-21.4 21.4-11.6 0-21.4-9.8-21.4-21.4 0-12-9-21-21-21.4h-0.4c-11.6 0-21.4 9.4-21.4 21.4 0 11.6 9.8 21.4 21.4 21.4h0.4c35.5 0.4 63.8 28.6 63.8 64.1z" fill="#FFFFFF" p-id="3918"></path><path d="M576.2 362.4c0 23.5-19.3 42.8-42.8 42.8h-214c-23.5 0-42.8-19.3-42.8-42.8s19.3-42.8 42.8-42.8h214c23.5 0 42.8 19.2 42.8 42.8z" fill="#ADE6FF" p-id="3919"></path></svg>